============================= DADDY YANKEE- DESCONTROLE =======================

Format                           : MPEG-4
Format profile                   : Base Media / Version 2
Codec ID                         : mp42
File size                        : 55.8 MiB
Duration                         : 3mn 36s
Overall bit rate                 : 2 160 Kbps
Encoded date                     : UTC 2010-05-18 05:36:59
Tagged date                      : UTC 2010-05-18 05:36:59
gsst                             : 0
gstd                             : 217291
gssd                             : B4A7D6C04MH1274286551777946
gshh                             :

Video
ID                               : 2
Format                           : AVC
Format/Info                      : Advanced Video Codec
Format profile                   : High@L3.1
Format settings, CABAC           : Yes
Format settings, ReFrames        : 1 frame
Codec ID                         : avc1
Codec ID/Info                    : Advanced Video Coding
Duration                         : 3mn 36s
Bit rate mode                    : Variable
Bit rate                         : 2 032 Kbps
Maximum bit rate                 : 6 175 Kbps
Width                            : 1 280 pixels
Height                           : 720 pixels
Display aspect ratio             : 16:9
Frame rate mode                  : Constant
Frame rate                       : 24.000 fps
Color space                      : YUV
Chroma subsampling               : 4:2:0
Bit depth                        : 8 bits
Scan type                        : Progressive
Bits/(Pixel*Frame)               : 0.092
Stream size                      : 52.5 MiB (94%)
Title                            : (C) 2007 Google Inc. v08.13.2007.
Encoded date                     : UTC 2010-05-18 05:36:59
Tagged date                      : UTC 2010-05-18 05:37:00

Audio
ID                               : 1
Format                           : AAC
Format/Info                      : Advanced Audio Codec
Format version                   : Version 4
Format profile                   : LC
Format settings, SBR             : No
Codec ID                         : 40
Duration                         : 3mn 36s
Bit rate mode                    : Variable
Bit rate                         : 125 Kbps
Maximum bit rate                 : 155 Kbps
Channel(s)                       : 2 channels
Channel positions                : Front: L R
Sampling rate                    : 44.1 KHz
Stream size                      : 3.25 MiB (6%)
Title                            : (C) 2007 Google Inc. v08.13.2007.
Encoded date                     : UTC 2010-05-18 05:36:59
Tagged date                      : UTC 2010-05-18 05:37:00

================================================================================

                        http://bayimg.com/DahaJAAdl

============================= HAUNTING SUMMER ==================================